<?xml version="1.0" encoding="utf-8"?>
<!-- Generator: Adobe Illustrator 26.0.1, SVG Export Plug-In . SVG Version: 6.00 Build 0)  -->
<!-- Modified by Bhanu Pratap Singh -->
<svg version="1.1"
	 id="svg4211" inkscape:version="0.47 r22583" sodipodi:docname="India_Uttar_Pradesh_districts_2010.svg" xmlns:cc="http://creativecommons.org/ns#" xmlns:dc="http://purl.org/dc/elements/1.1/" xmlns:inkscape="http://www.inkscape.org/namespaces/inkscape" xmlns:rdf="http://www.w3.org/1999/02/22-rdf-syntax-ns#" xmlns:sodipodi="http://sodipodi.sourceforge.net/DTD/sodipodi-0.dtd" xmlns:svg="http://www.w3.org/2000/svg"
	 xmlns="http://www.w3.org/2000/svg" xmlns:xlink="http://www.w3.org/1999/xlink" x="0px" y="0px" viewBox="0 0 355.6 348.2"
	 style="enable-background:new 0 0 355.6 348.2;" xml:space="preserve">
<style type="text/css">
	.st0{
		fill:#FCFCFC;
		stroke:#A5A7A9;
		stroke-width:0.45;
		stroke-linecap:round;
		stroke-linejoin:round;
		}
	.st1{
		fill:#FCFCFC;
		stroke:#A5A7A9;
		stroke-width:0.45;
		stroke-linecap:round;
		stroke-linejoin:round;
		}
	path:hover {
		fill: #AAAAAA;
		transition: 0.3s;
	}
</style>
<g id="district">
	<path id="path3015" sodipodi:nodetypes="cccsssssccccccscccccccccc" class="st0" d="M237.7,230.4L237.7,230.4L237.7,230.4
		c0,0,1.6-2.2,1.6-5.2c0-3-2.2-1.4-4.4-1.8c-2.2-0.4-2.8-3.2-4.8-4.2c-2-1-0.8-2.2-0.8-2.8c0-0.6,0.9-1.5,0.7-2.1
		c-0.1-0.3-2-1.1-2-1.1l-1.3-0.9l-2.3-1.3l-1.9-2.4c0,0,4.6-0.3,8.4,0.4c5.6,1,6.7,2.8,10.2,4.2c3,1.2,5.4,1,7.8,3.4
		s4.8,3.5,8.3,3.7c3.5,0.3-3.7-0.3,0.9,0c4.6,0.3,4.5,2.7,6,6.8c1.1,3.3,2.5,6.5,3.2,9.9c0.3,1.3,1.2,4.3-0.5,4.4
		c-1.9,0.1-3.9,0.6-5.7-0.2c-3-1.3-3.5-5.1-6.3-6.6c-1.4-0.7-3-0.7-4.5-1c-1.9-0.3-3.5-1.1-5.2-1.9c-1.8-0.9-5.4-1.3-7.3-1.3"/>
	<path id="Saharanpur" class="st1" d="M35.2,53.2c1.7,0,3.6-0.7,5,0.4c0.2,0.2,2.6,2,2.5,2.1c0.9-2.1,3.8-1.4,5.6-1.3
		c1.4,0.1,2.1-1.9,2.7-2.9c0.5-0.9,1.5-1.6,2.4-2.3c-1.6-0.9-1.4-3.5-1.6-5.1c-0.4-3-2-4.4,0.5-7.1c1.9-2.1,3.7-3.7,4.6-6.5
		c1-2.9,1.2-7.2,5.6-6.4c-5.2-3-11.1-3.6-15-8.8c-0.9,4.3-4.1,6.9-6.7,10.1c-1.2,1.5-2.3,3.2-2.7,5.1c-0.5,2.1-2.8,0-3.9,1.9
		c-0.9,1.6-1,3.3-2.9,3.7c-1.9,0.4-2.3,2.4-2.3,4.1c-0.1,1.7,0.1,3.4-0.9,4.9c-1.3,2-2.1,3.9-3.3,6C28.1,52.5,31.5,53.1,35.2,53.2"
		/>
	<path id="Muzaffarnagar" class="st1" d="M30.1,71.7c1,0.6,1.8,1.7,2.9,2c1.7,0.5,3.2-0.7,4.8,0.2c1,0.6,1.4,1.9,2.6,1.6
		c1.6-0.4,3.1-0.9,4.7-1.3c3.4-0.7,3.9,2.2,6.7,2.7c3,0.6,5.7-0.3,8.3-1.5c1.4-0.7,2.5-0.7,3.9-0.2c2.7,1,3,0.1,1.3-1.9
		c-2.4-2.9-1.7-6.4-1.8-10c-0.1-1.7,0.3-2.1,0.8-3.5c0.6-1.5,0.9-3.5-0.4-4.5c-0.9-0.7-1.7-1.9-2.8-2.4c1.3-1.4,0.2-3.1,0.5-4.6
		c-2.1,0.4-4.1,1.3-6.3,1.3c-1.1,0-1.8-0.9-2.5,0.1c-0.8,1-1.1,0.5-1.8,1.8c-1.3,2.3-1.7,3-4.3,2.8c-1.4-0.1-3.3-0.1-4,1.5
		c0.5-1.3-4.7-2.8-5.3-2.7c-4.1,0.4-8.1,0-11.9-1.6c-2.9-1.2-3.5,5.5-3.8,7.7c-0.8,4.3,0,7.7,0.8,11.9C25,70.1,27.8,70.4,30.1,71.7"
		/>
	<path id="Bijnor" class="st1" d="M63.5,60.8c-0.3,4.7-0.7,9.7,2.5,13.4c0.7,0.8,0.4,3.2,0.3,4.9c0,1.8-0.2,3.6-0.8,5.4
		c5.7,0.2,10.6,1.9,16.3,0.7c1.9-0.4,4.5-0.3,5.4-2.1c0.5-1.1,0.7-1.8,0.6-3c1.3-0.4,1.9-1.4,2.2-2.6c0.5-1.9,1.1-4.3,2.8-5.6
		c0.7-0.6,1.6-0.9,2.6-1c1.4-0.2,0.9-1.3,2.2-1.5c2-0.4,8.3-1.1,4.1-3.9c-3.2-2.1-6.4-4.1-9.5-6.3c-2.1-1.5-4.3-3.2-5.8-5.4
		c-1.3-2-2-4.4-3.8-6.1c-1.7-1.6-3.2-1.5-5.2-0.7c-1.9,0.8-3.9,0.1-5,2.1c-1.1,1.9-3.2,1.8-4.3,3.5c-0.7,1.2-1.4,4.4-3.4,3.4
		C64.7,57.1,65,60.2,63.5,60.8"/>
	<path id="Moradabad" class="st1" d="M91.3,74.2c-0.7,2.3-1.6,3.8-2.5,5.7c2,0,2.3,2.5,2.4,4c0.2,2.3,1.4,3.6,2,5.7
		c0.6,2.3-2.6,2.7-3.5,4.2c-1.2,2.1,0.1,4.3-3,4.8c-2,0.4-4,0.2-6,0.3c-1.4,0.1-0.1,7-0.3,8.4c-0.2,1.5-0.9,2.8-1.2,4.2
		c-0.3,2.2-0.2,1.9,1.4,3c1.9,1.4,3,3.4,5.5,3.6c2.7,0.3,4.7-0.9,7.3-1.3c1.2-2.2,2.1-2.6,4.7-2.5c1.5,0.1,2.1,0.6,2.6-1.1
		c0.2-0.9,0-1.9-0.1-2.7c-0.4-1.9-1.1-4.5-2.7-5.7c-0.7-0.2-0.8-0.7-0.5-1.5c-0.3-1.3,0.1-1.7,1.4-1.3c1.8,0,3.6,0.5,4.4-1.4
		c1.3-3.2,0.8-5.5-1.2-8.1c-1.4-1.8-1.6-4.1-0.8-6.2c0.5-1.3,1.6-1.1,2.2-2.4c0.6-1.3,1.2-2.7,2.3-3.6c-0.8,0.1-1.8,0.3-2.6-0.1
		c-1.5-0.8-0.5-2.3-2-2.9c-1.3-0.6-2-1.9-2.9-2.9c-1.2-1.4-2.6-1.4-1.8-3.6C94.2,70.7,92,72,91.3,74.2"/>
	<path id="Rampur" class="st1" d="M102.8,85c-2.8,0-2.3,5.4-1.3,6.9c2.5,3.6,3.1,5.7,1.2,9.9c-1.9,0.3-5.3-0.7-5.3,1.5
		c0,1.6,1,1.8,1.7,3.2c1.2,2.2,2.6,5.9,0.9,8.2c2.3,0.5,2.1,0.8,4.1-0.3c1.3-0.8,2.8-1.2,4.1-1.9c3-1.5,6.3-4.1,8.6-6.5
		c1.6-1.7,0.8-4.4,2.5-6.2c1-1.1,2.2-2,3.1-3.3c1-1.4,1.8-3.2,3.3-4.1c-0.7-2.5-3.8-2.4-5.7-3.5c-1.3-0.7-2.5-1.6-3.9-2.3
		c-2-1-3,0-3.1-2.4c-0.1-2.3-0.8-3.8-3.3-4.2C105.4,79.5,104.7,81.7,102.8,85"/>
	<path id="Bareilly" class="st1" d="M121.6,97.5c-1.5,1.7-3.2,2.8-3.7,5.1c-0.5,2.4-0.8,3.2-2.8,4.8c-1.9,1.5-3.7,3.2-5.8,4.5
		c-2.2,1.4-4.8,1.9-6.8,3.6c2.4,1.1,3.8,2.9,4.4,5.4c0.4,1.8,0.1,6.9,2.2,6.7c2.9-0.2,4.5,0,6.6,2c1.6,1.6,4.4-0.8,6.4-0.1
		c3,1-0.8,3.8,1.1,5.4c1.4,1.1,1.2,0.2,2.4-0.6c1.3-0.8,2.6-0.8,4.1-0.9c0.2-2.8,0.2-9.6,4.6-6.2c0.2-1.3,0.8-3.8-0.7-4.6
		c-0.3-2.3,0.9-3.4,2.4-4.8c0.9-0.8,1.8-1.7,1.5-3.1c-0.2-0.8-0.4-1.5-0.5-2.3c-0.8,0-1.8-0.3-2-1.2c0.3-0.9,0-1.3-1-1
		c-0.7-0.1-1.1-0.5-1.5-1.1c-1-1.7-2.1-2-1.7-4.2c0.4-1.8,1.4-3.4,1.7-5.1c0.4-1.9,0-3.8,0.8-5.6c-1.6-0.4-3.3-0.4-5-0.4
		c-2.1,0-2.2,0.3-2.7-1.6C123.8,93.6,123,95.9,121.6,97.5"/>
	<path id="Pilibhit" class="st1" d="M130.8,107.3c1.2,0.5,1.3,1.6,2.1,2.5c0.5,0.6,1.4,0.7,2.2,0.7c-0.2,0.9,0.2,1.7,1.1,2
		c3.8,1.2-0.2,5.5-1.5,6.9c-1.2,1.3-1.2,2.6-0.4,4c1,1.7-1.2,4.9,1.7,4.3c1.1-0.2,2.2-0.3,3.2-0.2c1.5,0.1,1,0.3,1.5,1.5
		c0.6,1.4,1.8,3.1,3.6,2.7c-0.2-4.3-0.8-12.9,5.2-13.8c2.4-0.4,3.8,1.4,5.8-0.6c1.6-1.5,3.4-3.1,5.1-0.7c0.7-2.7,4.3,0,4.6-3.5
		c0.2-2.1,0-4.5-2.6-4.6c0.3-1.6,0.7-3.2,1.4-4.7c0.3-0.7,0.7-1.4,1.2-2.1c-0.5-0.9-1.1-1.9-1.8-2.7c-1.6-2.1-1.5-3-4.2-2
		c-1.7,0.7-3.3,1.2-4.2,2.9c-0.8,1.5-0.8,2.5-2.7,2.5c-0.8,0-1.7,0-2.5-0.1c0.1-0.6,0.1-1.5-0.4-2c-0.6-0.6-1.5-0.4-2.2-0.7
		c-0.3-0.1-0.5-0.3-0.6-0.6c-0.4-1-1.6-0.7-2.7-0.5c-0.1-1.4,0.1-2.8,0-4.3c-1.1-0.2-2.2-0.2-3.3-0.1c-2.5,0.3-4.7,0.8-7.2,0.3
		c-0.8,1.8-0.4,3.7-0.8,5.6C132.1,102.5,130.4,104.7,130.8,107.3"/>
	<path id="Lakhimpur_Kheri" class="st1" d="M164.8,114.7c-1.1,0.9-2.7,0.1-3.8,0.9c-1.2,0.9,0.3,2.4,0.7,3.4
		c0.8,2.5,0.5,5.9-0.4,8.3c-1.2,3.3-4.9,2.4-4.7,6.6c0.1,2.1-0.3,2-2.1,2.8c-1,0.5-2.7,1.1-3.2,2.1c-0.1-0.6,0.2-1.1,0.6-1.4
		c-1.6,0.8-3.4,1.8-4.3,3.4c-1.3,2.2,0.3,4.1,1.2,6.1c0.4,0.9,0.5,1.9,0.5,2.8c1.5-0.1,3-0.1,4.4,0.2c2.8,0.6,4.7,2.5,7,3.9
		c0.2-2.2,1.4-3.7,3.3-4.6c1.8-0.8,3.9-2.9,5.2-1c1,1.4,2.3,2.4,4,1.3c0.7-0.4,1.1-1.1,1.1-2c1.6-0.1,3.2,0.1,4.8,0.4
		c1.9,0.3,4.4,0.9,6.1-0.3c1.7-1.3,3-2.4,5.3-2.1c2.1,0.3,4.1,1.2,5.9,2.1c0.9,0.4,1.8,0.8,2.7,1.2c1.5,0.6,1.4,2.4,1.6,3.9
		c3.1-7.3-0.8-14.8-4.7-21c-1.9-3-4.3-5.9-4.9-9.5c-0.7-4.1,1.4-8,3.6-11.3c1.5-2.2,1.4-2.4-0.2-4.5c-1-1.3-2.1-2.4-3.4-3.5
		c-2.9-2.3-6.4-3.4-10.1-4.1c-4-0.8-8.4-1.3-12.3,0.1c-4.1,1.4-5.6,5.6-6.3,9.4C165.8,108.6,165.1,112.4,164.8,114.7"/>
	<path id="Bahraich" class="st1" d="M195.4,130.8c3.4,5.2,7.2,11.7,6.4,18.2c-0.4,3.3-1.7,4.5,0.9,7.4c1.9,2.1,1.9,4.1,2,6.8
		c0.1,2.2,1.7,3.8,1.8,5.6c0.1,1.8,1.2,1.7,0.8,3.5c-0.4,1.8,0.2,1.7,1.6,2.1c2.5,0.8,3,2.9,2.9,5.3c0,1.1-0.2,2.3-0.2,3.4
		c-0.1,2.1,2-1.1,2.7-1.5c1.9-1.3,5.9-3.7,5.5-6.5c-0.4-2.7-0.2-4.5-1.4-7.1c-0.7-1.6-3-5.6-1.9-7.4c1.4-2.2,4.1-4.2-0.4-4.4
		c-1.9-0.1-1.2-2-1.5-3.6c-0.3-1.5-0.8-3-1.4-4.5c-0.5-1.2-0.6-2.6-1.4-3.6c-0.7-0.9-1.8-1.5-1.8-2.8c0-1.7,1.9-1,3.2-1
		c0.5-1,1.3-1.9,2.1-2.7c2-2.1,4.2-3.7,7.2-3.9c-2.4-7.3-6-14.2-10-20.8c-3.3-5.4-7.6-10.4-14.5-8.2c0.3,0.1,0.6,0.5,0.9,0.6
		c-3.1,3.9-6.6,8-7.5,13C190.3,123.5,193,127.2,195.4,130.8"/>
	<path id="Shravasti" class="st1" d="M213.1,140.8c-1.6,0.1-3.9-0.7-3.1,1.7c0.4,1.1,1.7,1.8,2.1,2.9c0.7,1.6,1.3,3.4,1.8,5
		c0.4,1.1,0.6,2.3,0.8,3.4c0.2,1.5-0.5,2.4,1.3,2.4c5.5,0.2,0.6,2.4,0.2,4.8c-0.5,3.3,2.5,7.4,3.3,10.6c4.1-3.8,5.6,2.8,8.9,2.3
		c2.8-0.4,1.7-6.3,1.8-8.1c2.4,0,9.8,5.5,8.2-0.9c-0.4-1.5-1.8-2.4-3.1-3c-1.1-0.5-1.8-0.1-1.8-1.5c0-1.1,0.3-2.1,0.6-3.1
		c1.4-3.7,4.8-5.2,6.5-8.6c1.7-3.5,6-2.6,9.3-2.5c1.6-1.1,1.2-1.9,0.6-3.8c-0.7-2.2-2.1-4-3.9-5.4c-3.7-2.8-8.4-2.8-12.8-2.6
		C226.2,134.7,217.3,132.3,213.1,140.8"/>
	<path id="Balrampur" class="st1" d="M249.6,146.2c-2.3,0-5.9-0.8-7.8,1c-0.9,0.9-1.2,2.2-1.9,3.3c-0.8,1.3-2.4,1.9-3.4,3.2
		c-1.2,1.4-4.6,7.1-1.8,8c3.3,1.1,4.8,3.2,3.5,6.6c3.1,0.6,3.3,3.9,5.6,5.6c-5.2,3.3,1.5,5.2,3.4,7c1.4,1.3,3,1.8,4.7,0.5
		c1.4-1,1.3-4,2.6-4c-0.4-3.4-0.3-6.5,2-9.3c2.4-2.8,6.6-1.2,9.8-1.4c-0.6-1-0.6-2.3-0.4-3.4c0.3-1.7,1.3-1.3,2.1-2.6
		c1-1.7,1-3.9,2.4-5.3c0,0.2,0,0.4,0,0.6c1-1.1,2.3-1.8,3.7-2c1.8-0.3,1.3-1.7,0.5-3.1c-1.3-2.4-4-4-6.5-4.9
		c-3.3-1.2-6.5-0.4-9.9-0.3c-1.6,0.1-3.1-0.2-4.7-0.2C252.1,145.3,250.8,146.2,249.6,146.2"/>
	<path id="Siddharthnagar" class="st1" d="M270.2,155.9c0-0.2,0-0.4,0-0.6c-1.4,1.4-1.4,3.6-2.4,5.3c-0.4,0.7-1,1.2-1.8,1.5
		c-0.4,1.5-0.8,3.2,0.1,4.6c-4.8,0.3-9-1.5-11.2,4c-1,2.4-0.8,4.2-0.5,6.7c2.2,0,4.1,1,5.1,3c0.6,1.1,0.2,2.1,1.6,1.9
		c1.3-0.2,2.3-0.6,3.5-1.2c2.4-1.1,4.3,0.8,6.2,2c2,1.3,4.5,1.5,6.4,2.9c1-0.4,2.1-0.5,3.2-0.6c1.4,0,1.9-1.1,3.4-1.2
		c-0.8-2.5,0.4-2.9,1.3-4.8c1.1-2.3,0.4-4.8,3-6.3c1.4-0.8,3.5-1.2,4.2-2.8c0.7-1.8,0.1-4.6-0.8-6.2
		C288.4,158.5,275.8,149.3,270.2,155.9"/>
	<path id="Maharajganj" class="st1" d="M306.3,161.3c-5.2,0.2-14-2.4-13.9,5.9c0.1,4.9-3.1,3.7-5.7,6.8c-1.5,1.7-0.7,4.3-2.2,5.9
		c-0.5,0.5-2.4,4.3-0.7,4.2c-0.8-2.7,7.3-1.1,8.4-1c0,1.9-0.4,3.9,1.7,4.8c2.1,0.9,4.3,1.4,6.3,2.6c1.6,1,1.4,0.8,3.1-0.3
		c1.2-0.8,2.6-1.3,3.9-2c2.6-1.4,2.6-3.3,3.8-5.7c0.7-1.4,1.8-1.4,1.9-3.1c0.1-1.4,0.2-2.9,1-4.1c0.9-1.5,3.1-0.9,4.2-2.4
		c-3.6,0.1-3.9-4.3-4.1-6.9c-0.1-0.9-0.4-6.1-1.2-6.2C310.4,159.7,308.5,161.2,306.3,161.3"/>
	<path id="Kushinagar" class="st1" d="M317.2,173.8c-2.1,1.1-3.4,0.6-4.1,3.4c-0.4,1.6,0.1,2.8-1.1,3.9c-1.1,1-1.4,2.4-1.8,3.7
		c-1.1,3.2-4.3,3.7-6.9,5.4c-1.1,0.7-2.6,1.2-0.9,2c0.9,0.4,1,1.8,1.1,2.7c0.3,2.3,0.3,4.4,0.9,6.7c1.6-0.1,3.3,0,4.9,0.2
		c0.8,0.1,1.6,0.1,2.4,0.1c1.8,0,0.9-0.4,1.6-1.6c2.4-4,8.9,5.2,10.2,6.4c2.2,2,4.7,0,7.5,0.1c2,0.1,8.5,1.8,9.5-0.9
		c0.5-1.3-1-2.3-2-2.4c-0.6,0-1.2,0-1.8,0c-1.5,0.1-0.5-0.5-1.2-1.4c-0.4-0.4-0.8-0.5-1.3-0.5c-0.3-0.8-0.4-1.6-0.5-2.5
		c-0.2-2.4,0.9-4.1-2.1-4c-2.8,0.1-6.8,0.2-7.3-3.5c-0.3-2.2,1.3-5.9-1-7.5c-2.4-1.6-2.7-0.9-2.7-4c0-2.7-2.8-4.5-2.5-7.2
		C318.3,172.9,317.1,173.8,317.2,173.8"/>
	<path id="Deoria" class="st1" d="M319.3,201.9c-1.2-0.9-4.1-3.4-5.7-2.1c-0.3,0.3-0.6,0.7-0.7,1.1c-0.4,1.4-1.1,1-2.5,0.9
		c-2-0.1-4.1-0.4-6.1-0.2c0.4,1.6,1.8,6.4-0.5,7.3c-2.3,0.9-5.4,0.3-5,3.9c0.4,3.6,3.8,2.4,6,4.5c1,0.9,1.9,2,2.5,3.2
		c1,1.9-0.2,1.9-0.9,3.6c1.6-0.2,2.4-2.3,4.1-2.6c1.9-0.4,3.4,0.8,4.4,2.3c1.9,2.9,6.2,6.3,10,5c-1-0.9-1.8-2-2.3-3.3
		c2.1,0.2,8-0.7,8-3.6c0-1.2-0.4-3.2-1.2-4.1c-0.9-1.1-3-0.7-4.2-1c-2.6-0.7-7.6-1.9-5.6-5.6c0.8-1.5,2.4-1.2,3.8-1.5
		c1.2-0.3,1.4-1.2,2.3-1.9C322.6,207.1,321.7,203.7,319.3,201.9"/>
	<path id="Ballia" class="st1" d="M320.7,228.5c-1.6-1-3-2.3-4.8-3c0.2,0.6,0.5,1.2,0.6,1.8c-1.4,0.1-2.6,0.1-3.5,1.3
		c-1.2,1.6-1.9,1.9-3.7,2.8c-1,0.5-1.5,2.7-0.5,3.4c1.2,0.9,3.2,0.2,3.4,2.4c0.3,2.7-3.1,3.1-0.4,5.3c1.8,1.5,4.1,2.2,6.1,3.2
		c1.2,0.6,1.8,1.4,2.1,2.7c0.5,2.7,1.4,5.5,1.8,8.2c1.4-0.6,3.1-0.6,3.8-2.1c0.6-1.3,0.3-3,1.6-3.8c1.9-1.2,5.1,0,4.7,2.5
		c2.5,0.3,3.1-2.1,5.1-2.8c2.7-0.9,5.2,1.2,7.8,1.5c4.7,0.4,5.9-4.7,1.6-6.5c-5.3-2.3-10.3-5-15.2-8c-2.5-1.5-2-4.3-4-6.4
		c-0.9-0.9-1.9-2.3-3.2-1.9C323,229.4,321.9,229.2,320.7,228.5"/>
	<path id="Ghazipur" class="st1" d="M316.4,245c-2.2-0.9-4.4-2-5.9-3.9c-1.2,1.9-2.9,1-4.9,0.5c-1.8-0.5-3.6-0.5-5.5-0.3
		c-1.3,0.1-2.6,0.2-3.8,0.8c-1.9,1-0.7,2.7-3.4,2c0.3,1.7-5.1,0.1-6.4,1.9c3.5,2.2-3.2,5.5-5.3,5.3c0.2,1.1,0.6,4.9-0.7,5
		c1.1,1,0.8,1.3,2.3,1.1c1.4-0.2,2.9-0.3,4.3,0.1c1.6,0.4,2.9,1.4,4.5,1.8c1.5,0.3,3.1,0.3,4.7,0.7c6.6,1.4,5.1,6.4,5.8,11.5
		c3.1-1.6,5.6-3.5,9-4.7c3.9-1.3,4.3-4.2,6.6-7.1c1-1.2,2.4-1.6,3.6-2.5c1.4-1-0.2-3.9-0.6-5.5C319.9,247.9,320.1,246.5,316.4,245"
		/>
	<path id="Chandauli" class="st1" d="M298.6,260.6c-2.5-1.4-5.5-0.9-8.1-1.8c-3.2-1.2-5.2-2.1-8.7-1.3c0.2,0.3,1.3,0.4,1.7,0.3
		c0,0.6,0.3,1.1,0.8,1.6c0.8,0.8,2,1.3,2.2,2.5c0.1,1.4-1,2.5-2.2,3.1c-1.6,0.7-2.2,3.1-3.4,3.1c1.8,1.4,6.8,9.7,2.8,10
		c-1.8,0.2-1.3,1-1.2,2.7c0.1,1.4,0.2,2.7,0.2,4.1c0,1-0.3,2.1-0.1,3.1c0.3,1.2,1.4,2.1,1.4,3.4c-0.7,0-1.3,0.2-1.9,0.4
		c1.9,2.2,3.8,4.3,6.9,4.4c2.5,0.1,5.6-0.8,7.9,0.5c-2.4-2.1-2.3-6.6-3.3-9.4c-1.2-3.8-0.5-8.1,1.4-11.6c0.7-1.3,1.7-2.5,3.1-3.1
		c1-0.4,2.1-0.6,3.1-1c1.5-0.6,0.8-1.3,0.8-2.7C302,265.5,302.1,262.6,298.6,260.6"/>
	<path id="Sonbhadra" class="st1" d="M285.6,295.4c-1.7-1.2-2.9-4.2-4.9-2.8c-0.4-2.3-2-3.2-4.2-2.9c-2.7,0.4-4.6,0.9-7.4,0.4
		c-2.1-0.4-1.9-0.3-2.8,1.3c-0.5,0.8-1.3,1.5-2.2,1.8c-2,0.8-4.6,0.7-6.6-0.3c-0.2,1.6,0.2,3.3-0.6,4.8c-0.6,1.3-1.4,2.1-1.5,3.7
		c2.1,0.1,5.6,0.5,7-1.4c2.6-0.5,4.2,0.8,4.4,3.3c0.8,1.1,4.6,1,3.2,3.7c-0.8,1.6-3.4,1.4-4.7,0.8c-0.2,1.5-1,4.6,1.3,4.2
		c0.1,1.3-0.1,2.7,0,4c0.8,0,1.7,0.1,2.1,0.8c1.6,2.4-1.8,6.5-2.4,8.8c-0.2,0.7-0.3,1.4-0.4,2.1c-1-0.2-2.1-0.3-2.1,0.9
		c0,1.3,2.6,2.1,3.2,3.6c0.5,1.1-0.3,3.2,1.6,3c-0.2,1.7,1.1,2.4,2.6,2.6c1.1,0.2,2.8,0,3.1,1.1c0.3,1.2,1.5,1.9,2.6,2.3
		c2.7,1,6.1,1,8.8,0.2c3.9-1.1,1.8-4.7,3-7.4c0.7-1.5,2.3-0.4,2.4-2c0.1-1.7,2.3-1.3,3.4-1.3c-0.3-2-2.8-3.4-0.7-5.4
		c1.2-1.1,3.7-1.8,2.2-3.8c-2.1-2.8,0.9-3.7,1.3-6.1c0.3-1.5-3.4-5.3,0-5.9c4.7-0.9,6-6.3,3-9.8c-1.4-1.6-3.4-3.3-5.5-3.5
		C291.8,296,288.2,297.1,285.6,295.4"/>
	<path id="Mirzapur" class="st1" d="M255.7,300c0.3-0.8,0.9-1.5,1.3-2.3c0.7-1.5,0.4-3.2,0.6-4.8c1.8,0.9,4,1.1,5.9,0.5
		c2.1-0.6,3-3.7,4.5-3.5c2.9,0.3,4.9,0.5,7.8-0.1c2.4-0.5,4.5,0.1,4.9,2.7c0.9-0.6,2-1.1,3.2-1.1c0-2-1.6-3.2-1.3-5.5
		c0.1-1.2,0.1-2.5,0-3.7c-0.1-1.8-0.9-3.9,1.1-4c2.2-0.2,1.4-3.3,0.8-5c-0.5-1.3-2.1-4.8-3.7-5c0,1.1,0.8,2,1,3.1
		c-1.7,0.6-3.4-0.8-5.1-0.1c-1.4,0.6-2.4,1.9-3.9,2.3c-1.5,0.4-2.3-0.7-3-1.8c-0.9-1.4-2.1-1.9-3.8-1.9c-0.7,0-1.4-0.1-2.1-0.3
		c-1.7-0.6-0.7-0.4-1.8,0.5c-0.8,0.7-2.3,0.4-3.3,0.4c-1.7,0-3.4,0.5-5.1,0.2c-2.1-0.4-3.5,0-5.5-0.1c-1.4-0.1-6.9-2.8-5.6,1
		c0.7,2.2,3.4,3.2,4.7,5c2,2.8-0.8,4.7-2.9,6.3c-3.3,2.5-3.4,7.4-6.7,10.1c1.9-0.2,1.4,0.8,1.4,2.5c1.7,0.2,3.5,0.1,5.2,0.2
		c0.1,1.6-0.1,3.3,0,4.9c1,0.1,1.9,0.1,2.9,0.2c0,1,0,1.9,0,2.9c1.9-0.3,2,2.3,3.7,1.9c0.2-1.5-0.3-2.9-0.1-4.3c0.7,0,1.5,0,2.2,0.1
		C254.9,301.3,255,302,255.7,300"/>
	<path id="Allahabad" class="st1" d="M241,288.2c0.9-1.9,1.5-4.1,3.3-5.5c1.4-1.1,3.3-2,3.5-4.1c0.3-2.9-3.4-4.3-4.9-6.3
		c-0.7-0.9-1-2.3,0.2-3c0.8-0.4,1.5-2,2.4-2.9c0.9-1,0.4-2.9,1.7-3.5c2.4-1.1-0.2-2.8-1-4.4c-1.1-2.2,0.5-4.1-1.6-5.9
		c-1.5-1.4-3.1,0.2-4.5-0.7c-1.2-0.7-1.6,0.1-2.7-1.2c-1.1-1.5-2-2.8-3.6-3.7c-1.8-1-3.8-1-5.7-1c-1.6,0-3.8-1.3-5.2-0.2
		c-1.4,1-2.2,3-2.9,4.6c-1,2.2-2.9,1.1-4.6,2c3.2,0.6,2.8,4,5.9,4.4c2,0.2,4,0.7,6,1c0.8,0.1,1.7,0.2,2.5,0.2
		c0.1,0.9,0.1,1.9-0.5,2.7c-0.3,0.6-0.8,0.9-1.4,1c-1.2,0.1-0.9,1-1.5,1.7c-0.8,1-0.6,1.5-2,1.8c-1.8,0.4-3.7-0.2-5.6-0.1
		c-2.2,0.2-4.7,0.6-6.9,1.1c0.9,2.5,1.2,5.1,0.9,7.7c1.7-0.2,4.4-0.4,4.6,2c0.2,1.8-1.1,3.4-1,5.2c3.1,0.3,4.4-1,6,2.1
		c1.3,2.4,4.9,1.3,7,1.5c1.5,0.1-0.9,6.8,2.4,8C236.1,294.3,239.4,291.9,241,288.2"/>
	<path id="Chitrakoot" class="st1" d="M211.8,266.2c-1.8,0.4-3.1,1.2-4.8,0.1c-1.4-0.8-2.6-2.1-4.2-2.4c-3-0.5-5.1-1.3-6.9-3.9
		c3.1-1.4-1-3.5-2.6-3.8c-2.4-0.5-2.8-1.7-3.2-4c-0.1,1.4-0.3,2.9-0.9,4.2c-0.6,1.5-2.1,2.1-2.8,3.4c-1.3,2.6-4.8,3.2-7.2,4.7
		c-2.6,1.6-2.5,4.1-2.4,6.9c0.1,1.5,0.3,2.7,1.3,3.8c1.4,1.7,2.9,0,3.1,2.7c0.4-0.7,0.5-1.6,0.4-2.4c1.1,0,2.1,0,3.2,0.1
		c-0.3,1.1-1.3,1.2-1.8,2.1c-0.5,0.9-0.3,1.9-0.4,2.8c-0.2,2.2-0.6,4.5-1.8,6.4c1.9,0.6,3.1-1.1,4.6-1.8c1.5-0.7,1.7,0.5,3.2,0.8
		c3.2,0.7,6.6,0.2,9.8,0c-1.1-2.5,1-4.1,1.9-6.2c0.5-1.1,0.3-2.2-0.4-3.2c0.5-0.4,1-0.6,1.7-0.6c1.5,0,0.9,1,1.3,2.2
		c0.9-1.6,2.1-3.1,4.2-2.5c0.1,1.9,1.7,3.8,3.8,3.6c-0.3-1.9,1.4-3.3,0.8-5.2C214.2,274,212.5,268,211.8,266.2"/>
	<path id="Banda" class="st1" d="M177.4,266.1c2-3.3,7.3-2.8,9-6.3c0.8-1.6,2.5-2.4,3.1-4.4c0.3-1,1.3-5.1-0.7-5.2
		c-1.6-0.1-1.1,1.5-2.2-0.3c-0.5-0.8-1.1-1.4-1.8-1.9c-1.6-1.1-3.5-1.1-5.3-1.1c-3.8,0-9.5-0.4-11.4-4.3c-0.6-1.3,0.7-1.7,1.2-2.6
		c1.1-2.1-5.4-1.6-6.8-1.7c-1.9-0.1-3.4,1.6-4.8,2.9c-1.3,1.2,0.3,2.7,1,3.8c1.1,1.8,1.1,3.8-0.2,5.4c-0.6,0.8-1.4,1.4-2.3,1.9
		c-1.3,0.7-1,1-1.3,2.4c-0.5,2.4-1.1,2.7-2.9,4.2c-1.1,0.9-1.6,5.4-0.3,5.9c0-1.1,1.8-1.7,2.5-2c1.4-0.5,3.4-1.6,3.5,0.3
		c0.2,2.8,3.6,6.7,6.2,7.7c0.5,2.9-2.4,3.1-3.7,5c-1.2,1.7,1.3,1.7-0.1,3.4c-1.1,0.4-3,1.3-3.2,2.6c0.8,0.1,1.7,0.1,2.6,0
		c1.1,0.2,1.5-0.2,1.3-1.2c0.4-1.3,1.8-1.9,3-1.5c2.3,0.7,0.1,4.4,1.8,4.6c1.9,0.1,1.9-2.3,1.8-3.6c-0.1-0.8-0.3-1.6-0.6-2.3
		c0.9-0.7,2.7-1.1,3.3,0.3c1.2-2.6,1.8-1.8,3,0.2c0.9,1.5,3.5,0.7,4.9,0.8c-0.2-1.7-2.6-3,0.9-2.9
		C176.9,273.7,175.7,269,177.4,266.1"/>
	<path id="Hamirpur" class="st1" d="M151.4,259.6c0.5-1.1,2-1.3,2.7-2.3c0.5-0.7,0.6-1.8,0.7-2.6c0.3-1.4,0-1.7,1.3-2.4
		c1.1-0.6,2.2-1.5,2.8-2.7c1.5-2.7-0.6-4.6-1.6-6.9c-0.8-1.8,2.9-3.5,3.9-4.7c-2.5-0.3-4.2-1.2-5.7-3.3c-0.7,1.8-1.2,2.9-2.8,1.1
		c-0.9-1.1-1.5-2.5-1.8-3.9c-0.5-1.7,0.1-2.9-1.8-3c-1.9-0.1-3.8-0.8-5-2.3c-0.4,0.8-1.2,0.5-2.1,0.6c0.4,2.5,1.4,5.5,0,7.8
		c-2,3.5-4.6,1.8-7.5,1c-1.5-0.5-3.2-0.5-4.8-0.4c-0.8,0-1.6,0-2.4,0.1c-2,0-1.1,0.9-1.3,2.5c-0.3,2-5.8,3.4-7.8,3.1
		c-0.1,1.9-0.4,3.8-0.3,5.8c0,1.3,0.1,2.6,0,3.9c0,1.9,0.3,1.2,1.8,1.8c4.1,1.4,7.9,3.3,12.4,2.2c4.4-1.1,6.4-2.7,10.6,0.1
		c2.7,1.8,6.3,5.3,5.2,9c1.1,0,2.2,0.3,3.3,0.6C150.9,263.1,150.7,261.1,151.4,259.6"/>
	<path id="Mahoba" class="st1" d="M147.7,260.6c-1.9-4.4-7.4-8.6-12.3-6.8c-3.1,1.1-5.7,1.8-9,1.2c-3-0.6-5.6-2.2-8.5-2.7
		c-0.2,2.6-1.8,4-2.5,6.4c-0.6,1.8-3.4,1.3-2.9,4.1c0.4,2.2,4.3,1.5,4.5,3.4c0.2,2.3,3.1,1.6,4.7,1.8c0.4,2.6-10,9.6-3,10.8
		c0.2-1.3-1.2-3,0.4-3.8c1.6-0.8,3.4,0.2,5,0.1c-0.1-1.1,0.2-3,1.7-2.2c0.6,0.3,1,0.9,1.3,1.5c0.6,1.1,1.3,0.9,2.6,0.9
		c2.5,0.1,4.9,0,7.4-0.2c1.7-0.1,1.2-0.8,1.2-2.3c0.1-2.8,0.3-4.4,3.1-3.6c2.4,0.7,6.8-2.3,5.2-5
		C148.6,263.8,148.5,262.4,147.7,260.6"/>
	<path id="Jhansi" class="st1" d="M115.2,259.6c0.2-2,1.7-3.3,2.4-5.1c0.9-2.6,0.3-5.8,0.4-8.6c0.1-2.1,1.5-4.4-1.1-4.7
		c-2.8-0.4-5.8-0.1-8.6-0.7c-3.6-0.7-2.6-5.5-5.5-6.5c-2-0.7-4.4,0.4-6-1.2c-1.1,0.8-2.8,5.1-3,6.5c-0.8-0.7-1.6-0.9-2,0.3
		c-0.4,1.2,0.4,2.9-1,3c-0.1,1.8,2.2,2.9,2,4.7c-0.4,2.6-4.3,1-5.8,2.3c-2.1,1.7-4.1,1.7-6.7,1.4c-2.1-0.3-5.1-0.8-5.5,2
		c-0.2,1.7,0.9,4.1-1.5,3.6c-3.5-0.7-2.9,1.9-3,4.5c-0.1,1.6-0.3,3.3,0.2,4.8c0.3,0.8,0.9,1.5,1.8,1.6c1.2,0.2,1.5,1.7,1.8,2.9
		c2.8,0.2,5.3,0.3,7.9-0.6c0-2.6-0.7-4.7-3.5-5c-1.2-0.1-4.3-1.1-1.5-1.8c2.9-0.7,2.8-4.2,5.7-4.8c1.9-0.4,2.8,0.6,3.1,2.4
		c0.2,1.4,3.2,1.8,3.9,0.1c0.3-0.7,0.3-1.5,0.4-2.2c2.3,0.3,2.3-0.1,2.4-2.1c0.1-1.6,1.3-1,2.5-2c1-0.8,1.9-1.7,3.1-2.2
		c1.1,1.8-1.1,2.8-1.2,4.5c-0.1,1.8,1.6,3.1,1.6,4.9c-1.5,0.1-3.3,0.1-4.5,1.1c-2,1.8-0.5,3.3,1.1,4.4c0.4-1.5-0.1-3,1.7-3.1
		c1.9-0.2,1.5,1.1,1.2,2.5c-0.3,1.1-1,1.8-2,2.2c-0.4,1.2-0.1,2.9,1.4,1.7c1.1-0.9,0.7-1.3,2.1-1.8c0.8-0.3,2.2-0.9,2.7,0.2
		c0.3,0.8-0.2,1.6,0,2.4c0.3,1.1,1.3,0.6,1.1,2.1c1.3,0.1,2.3-0.8,3.5-0.9c1.4-0.1,2.8,0.8,4.2,1.1c2.2,0.3,2.6-0.4,2.5-2.4
		c1-0.1,0.9-1.2,0.8-1.9C113.7,266.1,109.9,260.1,115.2,259.6"/>
	<path id="Lalitpur" class="st1" d="M74.1,270.4c0,0.4,0,0.8,0,1.2c-1.5-0.3-2,0.6-2.6,1.7c-0.3,0.4-0.6,0.8-1.1,0.9
		c-1.1,0.2-0.7,1-0.8,2.1c-0.2,3-3.7,8.7-7.5,7.8c-0.3,2.8,2.5,6.7,3.4,9.3c0.6,1.6,1.2,3.4,1,5.1c-0.2,1.7-2.3,2-2.2,3.4
		c0.1,2.2,2.7,1.8,4.2,2.5c1.9,0.9,1.8,3.2,1.6,5c-0.1,1-0.3,2-0.4,3c-0.2,1.7,0.7,1.5,2.2,1.7c1.9,0.2,1.2-1.5,1.7-2.9
		c0.4-1.2,1.2-2.1,2.3-2.9c0.5,2.9,4.6,1.2,5.8,3.7c1.1,2.1,0.6,5.6,3.7,6c-0.6-3.6,4.7-2.4,4.5,0.4c2.3-0.7,4-2.7,6.1-3.6
		c2-0.9,0.7-4.1,3.2-5.3c-0.8-1-1.5-2.1-2.4-3c-0.7-0.6-2.9-1.1-1.5-2.4c0.4-0.3,0.9-0.4,1.4-0.3c0.1-0.8,0.2-1.6,0.3-2.4
		c0-1.4-0.7-1.8-1.5-2.8c-0.9-1.1-0.3-1.6-2.3-1.2c-1.3,0.3-2.5,0.8-3.9,0.9c-1.9,0-0.9-2.2-0.7-3.5c0.4-1.9,0.9-3.9,1-5.9
		c0.1-3.3-1.1-3.1-3.5-4.2c-1.8-0.8-1.4-3.3-1.3-4.9c0.1-1.7,0.3-3.6-0.2-5.3c-0.2-0.6-0.5-1.1-1.1-1.3c-0.3-0.1-0.7-0.1-1,0
		c-0.5-1.1-0.4-2.3-0.5-3.4C79.3,270.7,76.8,270.6,74.1,270.4"/>
	<path id="Jalaun" class="st1" d="M102,233.8c2.9,0.8,2.5,3.8,4.4,5.8c1.4,1.3,3.4,1,5.1,1c2.2,0,4.5,0.3,6.7,0.8
		c2,0.3,3.7-0.6,5.5-1.3c1.3-0.5,2.1-0.1,2.3-1.8c0.2-1.6-0.7-2.5,1.3-2.5c2.4,0,4.9-0.3,7.2,0.4c1.7,0.5,3.3,1.8,5.1,1.1
		c3.1-1.3,4.7-9.7,1.2-9.9c-5-0.2-5.8-4.3-9.6-6.5c-2.9-1.7-5.9-3.8-6-7.3c-2.9-0.2-5.8-0.8-8.6-1.5c-1.3-0.3-2.7-0.6-4-0.8
		c-0.9-0.1-2.8,0.4-2.4-0.8c-1.8,0-3.9-0.8-4,1.3c-0.1,1.6-0.4,3.2-0.5,4.8c-0.1,2.1-0.8,0.6-2,1.9c-0.6,0.7-0.7,1.6-1.1,2.4
		c-0.5,1.1-1.2,0.2-1.5,1.7c-0.3,1.4,0.3,2.7-0.8,3.7c-1.8,1.7-1.4,5-3.6,6.4C98.4,234.3,100.2,233.3,102,233.8"/>
	<path id="Etawah" class="st1" d="M115.5,203.2c0.5-4.2,2.8-7.9,3.6-12c0.2-1,0.2-2.1,0.3-3.1c0.1-1.1-0.7-0.7-1.6-1
		c-0.8-0.3-1.3-0.8-1.8-1.5c-1,0.4-1.9,0.3-2.8-0.2c-1.5-0.8-2.6-1.5-4.3-0.5c-1.6,0.9-2.9,2.3-4.9,1.8c-1.7-0.4-3.5-1.5-5.2-0.7
		c-2.2,1-3-0.7-5.1-0.4c0.7,0.2,1,0,0.8-0.6c-1.8,0.4-4.1,0.7-3.2,2.8c0.4,1,3.8,4.6,3.8,4.6c0.8,0.5,1.5,1.2,2.3,1.7
		c-0.2,1.2,0.7,1.9,1.8,2.3c1.5,0.5,3.5,0.6,3.8,2.6c0.3,2.2-0.1,3.9,1.1,6c0.5,0.8,1.1,1.6,1.5,2.5c0.9,1.7,0.1,3.3,2.2,3.2
		c1.2,0,2.5,0.6,2.9-0.8c0.2-1,0.3-2,0.6-3C111.6,204.5,113.2,203.5,115.5,203.2"/>
	<path id="Auraiya" class="st1" d="M126.5,211.8c1.5-3,1.6-7,3.3-9.9c0.2-0.5,0.6-0.8,1.1-0.9c0.3-0.9,0.4-1.7,0.5-2.6
		c0.3-2,1.8-2.8,3.5-3.5c-0.2-0.9-2.8-3-3.7-3.8c-1.1-0.9-2.3-1-3.6-1.2c-2.2-0.3-3.9-1.5-6-2c-3.1-0.8-2.1,1-2.6,3.4
		c-0.4,2.2-1.3,4.3-2.1,6.4c-0.7,1.8-0.8,5.3-2.5,5.8c-3.8,1-3.4,4.6-4.3,7.7c5.1-0.1,10.1,2.1,15.2,2.5
		C125.3,212.7,125.4,211.9,126.5,211.8"/>
	<path id="Agra" class="st1" d="M90.7,186.6c-3.6,0.1-6.6,0.1-9.7-2c-1-0.7-2.4-1.5-2.7-2.8c-0.4-1.5-0.1-2.9-1.6-3.8
		c-2.6-1.4-5.6,0.5-7.3-2.7c-1-1.9-2.3-7.7,0.2-8.6c-1.9-1.9-2.7-3.5-5.7-2.6c-2,0.6-4.6,2-5.3,4.2c-0.8,0-2,0.3-2.6-0.3
		c-0.8-0.7-2.3,0.5-3.3,0.8c-3,0.9-5.7-0.1-8.7,0c3,0.9-0.8,3.7-0.5,5.4c-3.5-0.9-4,4.3-2.3,4.4c2.6,0.1,6.9-0.2,7.5,3.3
		c-1.6-0.1-4.5-0.5-5.2,1.3c-0.6,1.4-2.9,0.7-4.4,0.7c-1.5,0-1.6,0.5-2.9,1.1c-2.2,1-5.6,7.9-1.1,7.6c-0.3-5.1,4.6-4.6,8.2-4.3
		c1,0.1,2,0.2,3,0.1c-0.1-1.5-0.3-3.4,1.3-3.4c1,0,2.1-0.1,3.1,0.3c1,0.4,1.6,1.6,2.5,2c1.7,0.6,3.7-1.7,5.4-1.9
		c1.5-0.2,0.1,4.2,3.2,3.5c0-1.3,0.5-2.7,1.1-3.8c1.9,0.1,1.1-0.4,2.2-1.5c1.3-1.5,1.5,0.2,2.1,1.2c0.6,1.1,1.5,2,2.8,2.2
		c-1.6,0.6-1.5,3.1,0.2,3.5c1.7,0.4,3.3-0.3,4.9-0.4c1.6-0.1,3.1,0.5,4.5,1.1c3,1.2,5.7,1.2,8.9,1c2.2-0.1,1.1-1.5,3.6-1
		c1.1,0.2,2,0.7,2.9,1.3c0.2-0.7-1.6-1.3-2.2-1.9C91.8,189.3,91.2,188,90.7,186.6"/>
	<path id="Mathura" class="st1" d="M45.6,168.9c3.7,0.5,6.6,0.4,10-1.3c-1.2-1.8-1.6-4.2-1.8-6.3c-0.2-1.8,1.3-3.9,0.6-5.6
		c-0.5-1.1-0.2-2.7-1.6-3.8c-1.8-1.5-2.9-2.7-2.2-5.1c0.7-2.5,0.1-3.7-1.5-5.6c-1.3-1.6-0.1-4.1-2.6-4.7c-1.8-0.4-3.9-0.3-5.7-0.1
		c-1.4,0.1-2.8,0.3-4.2,0.4c-1.7,0.2-3-0.3-2.6,1.5c0.5,1.8-2.5,3.4-3.1,5.1c-0.7,1.9-0.3,4.1,0.2,6c0.6,2.1,1.5,4.1,2.2,6.2
		c0.6,1.6,0.4,3.9,1.2,5.4c1.5,2.7,8.4,1.6,9,4.5c0.3,1.3-2.4,0.9-2.5,1.3C40.9,169,44.2,168.7,45.6,168.9"/>
	<path id="Aligarh" class="st1" d="M47.7,136.9c1.3,1.1,0.6,3.3,2,4.8c1.5,1.4,1.4,3.2,0.9,5c-1.1,3.8,3,4.5,3.7,7.8
		c2.6-2.7,5.7-2.1,6.2-6.2c0.4-3.3,2.1-6.6,6-4.3c1.4,0.8,1.5,2.6,2.1,3.9c1.1,2.3,3.4,3.2,5.7,3.5c1-2.1,3.4-2.2,3.5-4.9
		c0.1-1-0.1-1.9,0-2.9c1.3-0.6,2.7-0.8,4.1-0.7c0-1.9-0.3-4.3,1.8-5.2c1.9-0.8,0.4-3.8,1.9-3.7c-0.6-0.9-1.4-1.8-2.4-2.3
		c-0.5-0.3-1.1-0.5-1.7-0.5c-1.6-0.2-1-0.6-1.1-2c-2.6,1-3.5,1.4-6.2,0.4c-2.5-0.9-4.8,0.4-7.2,0.8c-2.4,0.4-4.3-1.4-6.6-1.9
		c-2.6-0.6-5.3-1.3-8-1c-2.2,0.2-3.3,1.7-5.5,1.5c-1.4-0.1-2.7-0.6-4-0.9c-0.9-0.2-1.8-0.5-2.7-0.5c-1.4,0-1,1.4-1,2.3
		c0,0.8-0.4,1.6-0.2,2.4c0.2,0.8,0.8,1.5,0.7,2.4c-0.1,0.8-0.6,1.8,0.5,1.8c1.4,0.1,2.6-0.4,3.9-0.5
		C45.5,135.8,46.9,136.2,47.7,136.9"/>
	<path id="Gautam_Buddha_Nagar" class="st1" d="M44,128.5c1-0.3,2.7,0.5,4,0.4c3-0.2,1.9-2.3,0.6-4c-2.5-3.3-4.3-8.2-4.8-12.4
		c-0.2-1.8-0.1-3.9,0.1-5.7c-1.1-0.5-1.3,0.2-1.4-1.1c-0.1-0.7-0.4-1.2-0.9-1.6c-1.1-0.8-2.6-0.9-3.9-1.1c-3-0.4-5.3-3.8-8.6-2.2
		c-2.1,1,2.7,3.1,0.2,4.5c1.9,1.2,1.4,3.6,1.8,5.5c0.5,2,2.2,3.4,3.4,5.1c0.4,0.6,0.8,1.2,1.2,1.8c0.9,1.5,1.8,3.1,2.5,4.7
		c0.3,0.8,0.6,1.6,0.8,2.4c0.1,0.4,0.1,0.8,0.1,1.1c0,0.4-0.1,0.9-0.1,1.3c0,0.2,0.2,0.4,0.1,0.7C40.5,127.2,42.7,127.7,44,128.5"/>
	<path id="Ghaziabad" class="st1" d="M38.3,103c1.1,0.2,2.3,0.3,3.2,1c0.5,0.4,0.9,1,0.9,1.6c0.1,1.3,0.3,0.6,1.4,1.1
		c0.1-1.5,2.8,0.1,4.1,0c0.8,0,1.7-0.1,2.4-0.3c0.6-0.2,1.1-0.5,1.6-0.8c0.4-0.3,0.8-0.5,1.1-0.8c0.3-0.2,0.8-0.2,1.2-0.3
		c0.6-0.1,1.3,0,1.9-0.1c0-0.8,0.1-1.8,0.5-2.5c0.7-1.3,2-1.2,3.2-0.7c2.7,1.2,5.5,3.2,8,4.8c-0.1-3.1-0.6-6-1.7-8.8
		c-0.4-1-0.9-2-1.3-3c-1.3,0.1-2.7,0-4,0.1c-2.4,0.2-5.2-0.9-7.1,1.2c-1.2,1.4-2.1,3.8-4.5,3.2c-1.7-0.5-1.6-2.8-1.6-4.2
		c-0.1-2.3-2.8-1.7-4.7-2c-2.1-0.3-3.9-1.1-4.8-3.2c-3,1.1-2.5,3.1-2.8,5.8c-1.3-0.7-2.4-1.8-4-1.5c-2,0.3-3.4,0.8-5.3-0.3
		c0,0,1.9,2.6,2,3c0.3,0.1,0.9-0.4,1.3-0.3c0,0.5,0,4.7,0.5,4.4c1.2,0,2.3-0.1,3.4,0.5c0.3,0.2,0.6,0.3,0.9,0.5
		C35.5,102.1,36.9,102.8,38.3,103L38.3,103z"/>
	<path id="Baghpat" class="st1" d="M32.6,93.6c1.1,0.2,2,1,3,1.5c0.2-1.9-0.3-4.3,1.8-5.4c1.5-0.7,0.4-2.8,0.3-4.5
		c-0.2-2.3-0.9-8.6,2.1-9.6c-1.3-1.6-2.5-2.4-4.6-1.9c-2.7,0.6-3.9-1.6-6-2.6c-2-0.9-4.4-1-6.5-0.2c0.6,3,0.8,6,0.9,9
		c0.1,2.6,0.1,5.1,0.8,7.5c0,0.2,0.6,2.3,0.7,2.2c0.5-0.1,1.2,1.3,1.2,1.7c0,0.8-2,0.6,0.3,1.6C26.6,95.1,31.3,93.4,32.6,93.6"/>
	<path id="Meerut" class="st1" d="M64.7,84.4c1.7,0,1.5-2.8,1.6-4.3c0.1-2.2,0.8-3.8-1.3-4.5c-2.3-0.8-3.6-1-5.8,0.3
		c-1.8,1-3.6,1.1-5.7,1.1c-4,0.1-5.1-3.8-9.4-2.6c-3.9,1.1-6,1.2-6.3,5.7c-0.3,3.1-0.7,8.2,1.7,10.8c1.2,1.3,3,1.5,4.7,1.7
		c1.8,0.2,3.8-0.3,3.8,1.9c0.1,3.4,2.4,6.2,5.1,2.4c2.8-4.1,7.7-2.3,12.1-2.7C63.8,90.9,63.9,87.8,64.7,84.4"/>
	<path id="Jyotiba_Phule_Nagar" class="st1" d="M69.6,108.3c0.8,1.9,1.7,3.8,3,5.4c0.3,0.4,5-0.4,6.3,0.1c0.2-2.2,1.2-4.2,1.4-6.4
		c0.3-2.4-0.4-4.8-0.4-7.2c0-2.6,6.6-0.5,8.6-2.3c1.4-1.2,0.2-3.4,1.7-4.7c1-1,3-1.3,3.1-3c0.1-1.5-1.4-2.7-1.8-4.1
		c-0.5-1.7,0-3.6-0.9-5.2c-0.4-0.6-1-1-1.7-1c-1.4,0-0.8,0.9-1,2c-0.2,1.8-0.8,2.1-2.5,2.4c-5.7,1.2-10.2,1.4-16,0.5
		c-1.3-0.2-2.5-0.4-3.8-0.4c-1.5,0-1.2,1.3-1.4,2.5c-0.4,2.5-0.1,4.9,0.8,7.2c0.8,2.2,1.9,4.2,2.4,6.5c0.3,1.3,0.5,2.7,0.5,4
		C68.1,106.4,68.9,106.7,69.6,108.3"/>
	<path id="Bulandshahr" class="st1" d="M78.1,125.2c-1.9-1.6-3.9-2.7-6.4-3.1c-0.1-2.8,0.2-5,0.9-7.4c0.4-1.2-2.5-4.8-3.1-6.3
		c-0.9-2.4-2.8-2.6-4.7-3.9c-1.6-1.1-6.4-5.5-7.9-2.4c-0.8,1.5,0.3,2.5-1.8,2.6c-1.8,0.1-1.9,0.7-3.3,1.5c-2.4,1.4-5.3,0.5-7.8-0.1
		c-0.5,4.4,0.5,7.6,1.4,11.8c0.4,1.8,0.7,3.7,1.8,5.2c1.1,1.5,2.7,3,3,4.9c2.7-1.5,6.6-0.5,9.4,0.2c2.9,0.7,5.4,2.7,8.4,2
		c1.5-0.3,2.9-0.9,4.4-0.9c1.6,0,2.9,0.9,4.4,1.1c1.3,0.2,2.6-0.7,3.7-1.2C80.4,127.4,79.4,126.3,78.1,125.2"/>
	<path id="Badaun" class="st1" d="M96.7,140c1.9,1.7,3,2.7,5.7,2.9c2.2,0.2,4.5,0.6,6.5,1.5c0.8,0.4,1.8,1,2.1,2
		c0.4,1.5-1.3,1.1-1.3,2.6c0,1.7,1.8,0.3,2.9,0.3c1.5,0,2.8,1,4.2,1.6c0-0.8,0-1.6,0.1-2.4c0.2-1.9,0.6-1.2,1.6-2.5
		c0.9-1.3,1.3-2.6,2.7-3.6c0.8-0.5,2.6-1.7,1.5-2.8c-1-1-0.9-1.6-0.7-3c0.7-0.4,1.6-0.4,2.2-0.9c-1.9-1.6-1.4-1.9-0.9-4.2
		c0.6-2.6-3.3-2.2-4.7-1.7c-2.1,0.8-3.2-0.3-4.7-1.6c-1.1-1-2.4-0.9-3.7-0.8c-2.2,0.3-2.4,0.3-2.7-1.8c-0.7-5.3-1.6-9.7-7.6-11
		c-1.4-0.3-4.3-0.8-5.4,0.4c-1,1-0.7,1.7-2.3,2.1c-1.3,0.3-2.5,0.9-3.9,1.1c-5.6,0.7-7.5-5.2-13.2-5c-2.8,0.1-2.6,1.7-2.9,4
		c-1,0.2-0.7,2.7-0.6,3.6c0,1.8,1.6,1.4,3.1,2.1c1.9,0.8,4.1,2.4,5.2,4.2c0.5,0.9,0.6,1.9,0.7,2.9c0.1,1.8,1.3,0.9,2.8,1.7
		c0.8,0.4,1.4,1,1.9,1.6c0.9,1.1,2.4,1,3.7,1.5C91.9,136,94.4,138,96.7,140"/>
	<path id="Shahjahanpur" class="st1" d="M122,136.7c-0.1,0.8-0.1,1.7-0.1,2.6c0.5,0.3,1.3,0.8,1,1.5c-0.4,1.2-1.9,1.6-2.7,2.4
		c-1.3,1.2-1.4,3.4-3.3,4.1c-0.1,1.3-0.3,2.5-0.2,3.8c1,0.5,2.2,0.8,3.1,1.5c2.5,2,4.9,3.6,8.3,3.4c1.7-0.1,2.7-1.8,4.5-0.9
		c1.8,0.9,2.1,3.3,2.2,5.1c0.5-1.9,0-3.9-0.3-5.7c-0.2-1.2-0.3-2.5-0.2-3.8c1,0,2.1-0.2,3.1,0.2c1.3,0.4,1.4,1.4,2.2,2.4
		c1.7,2.2,2-1.4,2.4-2.4c0.6-1.5,4.3-0.9,5.9-1.1c2.5-0.2,0.8-2.9,0-4.4c-2.1-3.9,0.6-6.2,4-7.9c-0.5,0.3-0.7,0.8-0.6,1.4
		c0.7-1.6,3.8-2.5,5.3-3.1c0.2-3-0.6-4.7,2.6-6.2c3.9-1.8,3.5-9.1,1.8-12.2c-1.3-2.4-3.3-2.6-5.1-0.7c-2,2.1-2.8,1.3-5.3,1.1
		c-6.9-0.5-6.4,9.5-6.3,13.8c-3.3,0.7-2.9-4.1-5.1-4.2c-1.5-0.1-3.8,0.8-4.9,0c-0.8-0.6-2-1.4-3-0.8c-1.7,1.1-1.4,4.6-1.6,6.3
		c-0.1,1.1-3,0.8-4.2,1.6C124.3,135.3,123.4,135.9,122,136.7"/>
	<path id="Hardoi" class="st1" d="M142.4,149.9c-0.6,1-0.5,3.9-1.8,3.8c-1.3-0.1-1.3-1.8-2.2-2.5c-0.8-0.6-1.9-0.7-2.9-0.7
		c-1.7,0-1.2,1.1-1,2.6c0.3,2.3,1.1,4.7,0.4,6.9c0.1,1.9,0.9,13.6-0.6,13.8c1.4,2.1,2.6,3.8,5.4,4.3c2.6,0.5,4.4,1.1,6,3.4
		c0.5,0.8,0.8,1.6,1,2.5c0.3,1.9-0.2,1.9,1.7,2.2c1.5-0.6,3.1-0.8,4.7-0.7c1.7,0,3.3,0.7,3.8-0.9c1.2-4.2,6.9,2.9,9.3,2.4
		c1.1-0.3,0.7-1.1,1.4-1.9c0.8-0.9,1.9-1.2,3-1.3c1.4-0.1,2-1.2,3.5-1.4c1.4-0.1,2.7-0.2,3.7-1.3c0.5-0.6,1-1.4,1.8-1.7
		c0.9-0.4,3.1,0.2,3.2-1c0.2-2.2-3-3-4.4-3.8c-2.1-1.2-4.2-2-6.5-2.3c-1.6-0.2-3.1,0.4-3.3-1.4c-0.1-1.3-0.6-2.6-1.2-3.8
		c-1.1-2.2-2.7-4-4-6c-0.8-1.2-1.5-2.4-2-3.8c-0.6-1.6-0.1-3.3-1.5-4.2c-2.4-1.5-4.3-3.2-7.2-3.5
		C149.2,149.3,145.8,150.2,142.4,149.9"/>
	<path id="Sitapur" class="st1" d="M161.7,158.6c1.2,2.5,3.1,4.6,4.6,6.9c0.7,1.1,1.4,2.3,1.8,3.6c0.5,1.6-0.3,2.9,1.6,3.1
		c2.5,0.2,14.7,2.8,12.9,7c0.8,0,1.7,0,2.5,0.1c1.7,0.1,1.1-0.3,1.4-1.7c0.2-1.1,0.7-2.1,1.8-2.6c1.1-0.5,2.3-0.4,3.4-0.4
		c1.8,0,1.9-1.8,4.2-1.1c3,0.8,5,1,5.5-2.4c0.5-3.8,4.7,1.4,5.6,2.6c0-0.8,0.2-1.7,0.6-2.4c-0.8-0.5-1.1-1.4-1.2-2.3
		c-0.1-1.3-1.1-1.8-1.5-3.1c-0.6-2.4,0.3-5.5-1.1-7.8c-0.9-1.5-2.4-2.4-2.9-4.1c-0.5-1.6-0.1-4.3-1.9-5c-3.2-1.3-6.8-3.9-10.5-3.3
		c-1.5,0.3-2.3,1.2-3.4,2.1c-1.4,1-3.3,0.7-4.9,0.5c-2-0.3-4-0.8-6-0.6c0.1,1.4-1.3,2.4-2.6,2.4c-1.6,0-2.1-1.4-3-2.4
		c-0.8-0.8-2.8,0.8-3.8,1.3C160.6,150.7,159.8,154.5,161.7,158.6"/>
	<path id="Gonda" class="st1" d="M217.6,186.3c0.6,1.4,1.7,2.2,3.2,2.8c1.4,0.5,1.3,1,2.4,1.9c1.6,1.2,4.3,2,5.1,4
		c2.1-0.2,3.7,1.7,5.9,0.9c2.8-0.9,5.6-3.8,8.3-1.1c0.4-2.3,0-4.5,2.5-5.1c2-0.5,4.1-0.3,6.2-0.3c2.4-0.1,4.2-1.4,6.2-2.5
		c0.6-1.3,0.2-2.6-0.2-3.8c0.9-0.3,1.9-0.5,2.8-0.7c-0.7-2.5-2.2-4.6-5-4.9c-2.1-0.3-1.5,0.1-2,1.8c-0.4,1.1-1.1,2.2-2.3,2.6
		c-2.9,1.1-3.7-1.6-5.9-2.5c-2.6-1-4.9-3.3-1.4-5.5c-2-1.5-2.3-4.4-4.9-5.4c-1.1-0.4-2.3-0.2-3.4-0.6c-1.7-0.6-3.1-2-5-2
		c-0.2,2.3,0.4,4.7-0.5,6.9c-1.2,3.1-3.9-0.2-5.2-1.3c-2.3-2.1-6.4-0.2-5.3,3c1.7,4.5-5.9,6.3-7.3,9.6
		C214.4,184,216.6,183.8,217.6,186.3"/>
	<path id="Basti" class="st1" d="M257.3,183c0.9,2.6,0.5,3.7-1.8,5c-1.7,1-3.3,1.4-5.2,1.4c-1.7,0-3.5-0.1-5.2,0.3
		c-2.3,0.5-1.9,1.8-2.3,3.8c-0.4,2.4,3.3,6.8,5.6,7.7c2.5,0.9,5.5,1.5,7,4.1c1.7-1.7,4.7-0.6,6.2,0.9c1.7,1.6,4.8,0.9,6.9,1.3
		c1.2,0.2,2.3,0.5,3.4,1.1c1.1,0.6,0.9-0.1,1.8-0.8c1.2-1.1,3-1.9,3.7-3.5c0.9-2.3-1.4-3.2-2.9-4.3c-1.5-1.1-2.4-4-2.4-5.9
		c0.1-1.8,1.9-2.1,3.4-2.1c0.5-2-0.7-5,1.7-6.1c-1.4-1-3-1.5-4.6-2c-2-0.6-3.4-2.4-5.3-3.1c-1.7-0.6-2.8,0.4-4.3,1
		C261.1,182.4,259.1,182.3,257.3,183"/>
	<path id="Sant_Kabir_Nagar" class="st1" d="M281.2,185.3c-4.1-0.2-5.6,1-5.6,4.9c0,2.4-0.8,1.3-2.5,2c-1.3,0.6-1.2,2-0.9,3.2
		c0.3,1.5,0.9,3.5,2.2,4.4c1.4,1,3.3,1.5,3.1,3.6c-0.3,2.6-3.7,3.3-4.8,5.3c3.1,1.3,6.5,1.6,9.2,3.9c-0.2-3.3,0.8-6.5,0.2-9.8
		c-0.2-1.2,0-1.7,1.1-2.3c1.6-0.9,1.1-2.6,0.5-4c-0.5-1.4-1.1-2.7,0.3-3.4c1.4-0.7,1.4-3.6,1.3-5.3
		C285.3,186.1,283,181.6,281.2,185.3"/>
	<path id="Gorakhpur" class="st1" d="M285.2,185.6c0.5,1.4,0.2,3.3,0,4.8c-0.1,0.8-0.2,1.6-0.3,2.5c-1.1,0.2-1.9,0.5-1.7,1.7
		c0.2,1.7,1.5,3.3,1,5c-0.3,1.3-2.3,1.2-2.2,2.7c0.2,3.5-0.3,7.1-0.2,10.6c1.1,0.9,0.1,2.5,1.5,2.7c1.5,0.2,3,0.5,4.5,0.8
		c2.5,0.5,5.1,0.8,7.4,2.3c1.7,1.1,2.2,3.1,4.1,3c1.5-0.1,4,0,5.1,1.4c1.9,2.5,4.2-0.1,3-2.4c-1.3-2.5-3.3-4.1-6-4.9
		c-1.4-0.4-1.8-0.3-2.3-1.9c-0.4-1.3-0.3-2.9,0.9-3.8c1.8-1.3,4.6,0,5-2.9c0.5-3.2-1.2-6.1-1.3-9.3c-0.1-1.2,0.2-5.7-1.7-5.7
		c-0.8-2.1-4.7-3.1-6.5-3.7c-3.1-1-3-2.3-3.1-5.3c-2-0.2-4-0.6-6.1-0.5c-0.7,0-2,0.1-2.3,0.9C283.4,184.5,284.9,184.8,285.2,185.6"
		/>
	<path id="Mau" class="st1" d="M303.8,222.4c-1.7-0.9-3.8-1.1-5.7-0.7c0.7,1.5,0.7,3.2,0,4.7c-0.9,2.1-2.6,0.3-2.5,2.8
		c0.1,2.1-1.3,1.3-2.7,2.2c-1.3,0.9-1.7,2.5-1.8,3.9c-0.1,2.1,1.2,1.6,1.1,3.5c-0.1,2,0.3,3.4,0.7,5.3c2.6,0.6,1.5-0.5,2.9-1.7
		c1.1-1,2.9-1.1,4.3-1.2c1.5-0.1,2.9-0.3,4.3,0.1c1.8,0.4,3.6,1.3,5.4,0.9c0.8-2.4,4.5-6.3-0.2-7.1c-2.9-0.5-0.9-3.9,1.1-4.4
		c1.1-0.3,1.6-1.2,2.3-2.1c0.9-1.2,2.1-1.2,3.5-1.3c-0.8-2.6-2.6-6.5-6-5.8c-1.7,0.3-2.2,1.5-3.5,2.3C305.5,225,305,223,303.8,222.4
		"/>
	<path id="Azamgarh" class="st1" d="M292.3,237.4c-2.6-0.4-0.7-6.1,1.6-6.4c1.8-0.2,1.8-1.1,1.7-2.7c0-0.9,1.2-1,2-0.9
		c0.6-0.9,1-2,1-3.1c0.5-7.4-10.8-8.3-16-9c0.1,1.5,0,3.1-0.2,4.6c-0.2,2.1-2.6,0.8-4.1,0.2c-1.2-0.5-2.4-1.2-3.7-1.6
		c-2.6-0.8-2.9-0.2-2.9,2.3c0.1,1.7,0.2,3.3,0.1,5c-1.3,0.1-2.7-0.1-3.6-1.1c-1.7-1.8-3.7-5.2-6.6-3.1c2.1,2.5,2.8,6.6,3.9,9.6
		c0.6,1.7,3.6,10,1.2,10.1c1.1,1.8,0.6,2.6,3,3.3c3,0.8,6.4,2.2,9.2,3.6c2.3,1.1,1.9,4.5,5.3,2.6c1.6-0.9,4.6-3.4,2.2-4.9
		c1.4-1.9,4.5-0.9,6.5-1c0.1-0.9-0.3-1.8-0.5-2.6C292,240.8,292.4,239.1,292.3,237.4"/>
	<path id="Varanasi" class="st1" d="M267.7,255.4c-0.1,0.8,0.4,2.2-0.2,2.9c-1,1.3-2.6-0.5-2.9,2.1c-0.1,0.7,0.1,2.8-0.9,2.8
		c0.6,2.1,0.1,4-0.9,5.8c1.6,1.1,3.4,0.4,5.1,1c1.7,0.6,1.8,2.5,3.3,3.3c1.7,0.9,3.4-0.9,4.7-1.7c2.1-1.3,3.8,0.3,5.9-0.3
		c-0.2-1.1-1-2-1-3.1c1.6,0.2,1-0.7,1.7-1.8c0.6-0.9,1.6-1.2,2.4-1.7c2.5-1.4,1.7-3.5-0.1-4.9c-0.6-0.5-1.2-1.1-1.2-2
		c-1.6,0.3-1.9-0.6-2.9-1.6C276.3,256.3,272,255.2,267.7,255.4"/>
	<path id="Sant_Ravidas_Nagar" class="st1" d="M263.7,263.2c-1.3,0-2.1-0.7-3-1.7c-1.3-1.5-2.6-2.2-4.5-2.6
		c-3.1-0.8-8.3-1.8-10.3-4.5c-0.2,2.2-0.2,3.8,1.2,5.6c0.5,0.6,1,1.2,1.1,2c0.1,1.4-0.9,0.6-1.6,1.4c-0.9,1.1-0.3,2.5-1.6,3.5
		c-2.1,1.6-1.1,2.5,0.9,3.1c2.2,0.7,4.1-0.4,6.1,0.1c2,0.5,3.5,0.4,5.5,0.3c1.2-0.1,3.4,0.4,4.4-0.5
		C263.8,268.5,264.3,265.3,263.7,263.2"/>
	<path id="Jaunpur" class="st1" d="M278.2,248c-3.1-0.9-6.1-2.4-9.2-3.5c-2.1-0.7-1.1-3.1-3.3-2.9c-3.3,0.3-5.5-0.3-7.4-3.1
		c-1.6-2.4-3.1-4.1-6.1-4.5c0.1,1.9-3.1-0.9-3.2,1.7c-0.1,2.9-0.8,1.7-3,2.5c-2,0.8-2.3,5.8-3.5,7.5c-0.9,1.3-1.6,2.6-1.6,4.3
		c-2.6,1.3-0.6,2.4,1.3,2.1c2.3-0.4,3.2,1.7,4.5,3.1c1.5,1.7,4.3,1.8,6.3,2.5c1.8,0.6,3.9,1.1,5.6,1.9c1.7,0.8,2.5,2.9,4.3,3.5
		c2.5,0.8,1.5-2,2.1-3.5c0.7-1.9,3,0.1,2.9-2.6c-0.1-2.4,1.7-1.6,3.8-1.4c2.6,0.2,5.2,0.6,7.8,0.7c1.8,0.1,1.9,0.5,2-1.3
		c0.1-1.2,0.2-2.4-0.1-3.6C280.9,249.6,279.8,248.4,278.2,248"/>
	<path id="Pratapgarh" class="st1" d="M240.8,249.9c0.1-2,1.1-3.4,2.1-5c1.1-1.8,1.2-3.7,1.9-5.5c0.5-1.4,1.8-1.5,3.1-1.6
		c1.5-0.1,1-0.8,1.1-2.2c0.1-1.8,1.8-1,3.3-1.1c-0.2-1-4.8-1.6-6-2.3c-2.7-1.4-5.2-1.7-8.2-1.7c-3.2,0.1-6.4,0.5-9.6,0.4
		c-2.7-0.1-5.8,0.8-8.2-0.8c-0.7-0.5-4-3.2-4.5-1.8c0,0.1-1.7,1.2-1.9,1.3c-0.8,0.8-1.7,1.9-1.9,3.1c-0.2,0.9,0.1,1.9,0.3,2.8
		c-1.3,0.4-2.3,1.5-3.2,2.4c-1.5,1.4-3.3,2.4-5.1,3c2.1,0.4,1.8,2.1,2.2,3.6c0.2,0.7,0.7,1.2,1.4,1.3c0.3,1.4-0.6,2.6-0.6,4
		c2.1-0.2,3.9,1.5,5.8,2c1.8,0.5,4.4,0.7,6.2-0.2c2.7-1.3,1.9-6.9,6-6.2c3.7,0.6,7.7,0.2,10.7,2.8c0.9,0.8,1.5,2,2.2,2.9
		C238.9,252.7,239.8,250.4,240.8,249.9"/>
	<path id="Kaushambi" class="st1" d="M206.8,249.9c0-1,0.5-2,0.6-3c0.2-1.7-1.1-1-1.5-2.4c-0.5-2.1-0.3-3.4-2.9-3.6
		c0.2,1.2,0.5,2.4,0.8,3.6c-3.9,0.4-7.2,1.5-5,6c0.8,1.7,1.6,3.2,1.2,5.1c-0.3,1.6-0.9,4.4-3.1,2.7c0.1,1-0.3,1.5-1.1,1.7
		c1.3,1.9,2.9,3.1,5.1,3.6c1.3,0.3,2.5,0.4,3.6,1.1c1.3,0.8,2.6,2.1,4.2,2.3c2.5,0.2,6.1-1.3,8.6-1.7c1.6-0.2,7.5,0.9,8.3-0.8
		c0.3-0.7,0.8-2,1.3-2.5c0.9-0.9,2-0.3,2.5-2c0.7-2.3-0.6-1.8-2.4-2.1c-2-0.3-4-0.8-6-1c-2.9-0.3-2.4-3.5-5-4.2
		c-1.5-0.4-3.1-0.4-4.5-1C210.1,250.9,208.5,249.7,206.8,249.9"/>
	<path id="Fatehpur" class="st1" d="M199,258.7c3-1.8,0.2-7.2-0.5-9.1c-1.5-4.1,2.2-4.8,5.4-5.1c-0.3-1.2-0.6-2.4-0.8-3.6
		c-0.8-0.1-1.6-0.5-2.3-1c-1.5-1.2-2.4-3.3-2.3-5.2c-5.4,0.6-7.4-4.4-12.3-4.7c-2.7-0.2-5.3,0.5-7.9-0.7c-1.1-0.5-2-1.2-2.6-2.2
		c-1,0.3-1.8-0.5-2.3-1.3c-0.8-1.4-1.3-4.4-3.2-3.9c-2.8,0.7-4.9,2.9-7.5,4.1c-3.7,1.6-10.1,7.5-5.1,11c2.1,1.5,5.2,1.3,7.7,1.4
		c2.7,0.1,5.3-0.1,3,2.7c-3.1,3.6,8.6,5.8,10.3,5.8c1.8,0,3.8-0.1,5.6,0.7c1.1,0.5,1.9,1.4,2.5,2.3c1.3,2,1.3-0.7,2.7,0.5
		c1.5,1.2,0.3,4,2,5.2c1.2,0.8,2.7,0.5,3.9,1.3C196.3,257.5,197.5,259.5,199,258.7"/>
	<path id="Kanpur_Nagar" class="st1" d="M160.7,226.9c3.2-1.5,7-4.8,10.6-5.1c-2.1-3.4-1.7-6.7-5-9.3c-3.3-2.6-3.6-7.2-7.3-9.4
		c-3.5-2.1-6.7-3.1-6.6-7.8c0.1-2.1-0.2-3.7-1.9-5.1c-0.9-0.7-4.2-3-2.1-3.9c-0.5-0.1-1.1-0.2-1.6-0.2c0,1-0.8,1-1.7,0.8
		c-0.2,1.2-0.5,2.4-1,3.5c-0.4,0.9-0.8,1.8-1.4,2.7c-0.2,0.2-1.9,1.8-1.9,1.9c3-0.1,4.7,2.2,5.7,4.7c0.7,1.8,0.6,2.1,2.2,2.8
		c1.2,0.5,2.1,1.6,2.8,2.6c3.5,4.4,5.5,12.8-1.9,13.9c-2.3,0.3-6.4,7-4.8,8.4c1.2,1.1,2.8,1.6,4.4,1.6c1.9,0.1,1.3,1.3,1.8,3
		c0.4,1.4,0.9,2.8,1.8,3.9c1.6,1.8,2.1,0.8,2.8-1.1C156.7,231.7,157.4,228.5,160.7,226.9"/>
	<path id="Kanpur_Dehat" class="st1" d="M146.9,220.9c0.9-1.8,2.4-1.8,4.1-2c2.3-0.3,3.3-2.7,3.5-4.7c0.4-4.1-1.8-8.2-4.9-10.8
		c-1.5-1.3-2.3-0.7-3-2.7c-0.7-1.9-1.6-3.9-3.4-4.9c-2.2-1.3-3.8,0.2-6.1-0.2c-2.1-0.4-4-0.9-5.3,1.6c-0.8,1.5-0.2,3.1-1.6,4.3
		c-1.2,1.1-1.6,4.2-2.2,5.8c-0.4,1.2-0.7,2.4-1.1,3.6c-0.4,1.2-1.6,1.1-1.7,2.3c-0.2,1.8,0.1,2.6,1.2,3.9c1.3,1.7,3,2.9,4.9,4
		c2.1,1.2,2.8,2.9,4.5,4.6c1.9,1.9,4.6,2,7.1,1.9C144.9,227.2,146.1,222.6,146.9,220.9"/>
	<path id="Kannauj" class="st1" d="M126.7,189.7c1.3,0.2,2.8,0.2,4,0.9c1.6,1,2.5,2.8,4.1,3.8c4.6,3,8.1-0.8,9.5-4.9
		c0.3-0.8,0.5-1.7,0.6-2.6c0.9,0.2,1.7,0.2,1.7-0.8c0.1-2.5-0.7-4.4-2.5-6.3c-1.6-1.6-3.6-1.4-5.6-2c-1.2-0.3-4.3-4.1-4.6-4
		c0.6,3-3.7,2.5-5.5,2.2c-3.3-0.7-6-3.8-9.6-2.2c1.3,0.5,0.6,2.1,0.6,3.3c0,1.2,0.7,2.1,0.9,3.3c0.4,2.5-2.6,4.3-4.6,5
		c1.2,1.5,2.7,1.8,4.6,2C122.7,187.8,124.5,189.3,126.7,189.7"/>
	<path id="Firozabad" class="st1" d="M92.6,180.9c-1.2-0.3,0.6-5.4-0.2-6.8c-0.2-0.4-0.6-0.7-1-1c-1.2-0.7-0.9-1.1-0.9-2.5
		c0-1.5,0.3-3.1,1.8-3.8c-0.5-1-1.2-1.6-2.1-2.3c-1.6-1.1-1.8-2.4-2.4-4.2c-2.4-0.2-5.3,0.1-6.9,2.2c-0.7,1-1.1,2.2-1.2,3.4
		c-2,0.1-3.6-0.4-5.4,0.7c-1,0.6-2.7,0.9-3.8,0.7c-0.6-0.7-1.3-0.8-2-0.1c-0.1,1-0.2,2-0.2,3c0,2.7,0.7,6.8,4,7.2
		c1.5,0.2,3.1-0.2,4.4,0.6c1.5,0.9,1.2,2.3,1.6,3.8c0.7,2.7,5.3,4.5,7.7,4.8c1.7,0.2,3.3,0.1,5,0c0.3-1.5,2.2-1.4,3.4-1.7
		C94.3,183.4,92.6,182.5,92.6,180.9"/>
	<path id="Mahamaya_Nagar" class="st1" d="M71.6,167.1c-1.2-0.8-0.5-2.7-1.5-3.7c-1.2-1.1-1.8,0.4-2.2-1.4c-0.2-1.1-0.9-2.3-0.2-3.4
		c2.9-4.3,12.4-2.7,12.9-8.5c0.2-1.5-0.8-5.8,1.3-6.3c0.2-1.7-1.8-1-3-0.7c-1.8,0.5-0.8,2.6-1.2,4.3c-0.3,1.3-1.3,1.9-2.2,2.6
		c-1.4,1.1-1.2,1.5-3.2,0.9c-3.3-1-3.3-3.4-4.8-5.9c-0.9-1.6-4-2.4-5.5-1.1c-1.4,1.2-1.4,3.5-1.6,5.1c-0.2,1.8-1.5,3.1-3.4,3.9
		c-0.9,0.4-2,0.8-2.8,1.6c-0.4,0.4,0.3,2.6,0,3.6c-0.7,2.4-0.5,4.6,0.2,7c0.4,1.5,2.8,5.4,4.4,2.6c1.1-2,3.6-3.4,5.8-3.7
		c1-0.2,2.2-0.1,3,0.6C68.7,165.5,69.8,168.2,71.6,167.1"/>
	<path id="Farrukhabad" class="st1" d="M134.8,162.8c0.1-2.1,0.3-4.7-0.9-6.6c-1.4-2.3-3-1.2-4.9-0.5c-4.4,1.6-7.7-2.8-11.1-4.2
		c-1.9-0.8-4-2.4-6.1-2c-2.4,0.5-4.4,0.9-2.7,3.5c1.2,1.9,3.2,3.2,4.2,5.2c0.8,1.5,1.6,5.8-0.6,6.1c0.8,0.6,1.4,1.4,1.5,2.5
		c0.1,1.4,1,2,1.6,3.3c1,2.1,1.9,4.1,4.5,3.5c3.8-0.9,7.2,3.1,11.3,2.9c1.5-0.1,2.9-0.7,2.6-2.4c0.9-0.2,0.8-0.8,0.8-1.7
		C135.1,169.1,134.7,166,134.8,162.8"/>
	<path id="Mainpuri" class="st1" d="M120.5,181.5c0.2-1.2-0.6-2.1-0.8-3.3c-0.3-1.4,0.7-3.7-0.7-4.3c-3.2-1.3-2.9-5.3-5.9-6.8
		c-1.4-0.7-2.9-0.9-4.3-1.6c-1.2-0.6-2-1.6-3.3-2c-1.4-0.4-2.6-0.5-3.7-1.5c-1-0.9-2-1.4-3.2-0.7c-2,1.2-2.8,4.9-4.8,5.1
		c-3.6,0.4-3.6,3.4-3.4,6.3c3.2,0.9,2.1,4,1.7,6.4c-0.2,1.3,0.2,2.2,1,3.4c0.5,0.9,2.2,2.9,0.3,3c1.3-0.2,2.2,0.9,3.5,1
		c1.3,0.1,2.1-1,3.5-0.8c2.5,0.3,4.3,1.9,6.7,0.2c3.1-2.1,3.5-1.1,6.7-0.2C116.1,186.3,120.2,183.8,120.5,181.5"/>
	<path id="Barabanki" class="st1" d="M205.1,170.9c-1-0.8-2.4-1.3-3.7-1.1c0.1,1.6-0.7,2-1,3.2c-0.4,2.3-4,0.4-5.4,0.2
		c-1.1-0.2-2,0.2-2.5,1.3c-1.1,0-2.1,0-3.2,0.2c-2.5,0.4-3,2.5-3.2,4.7c1.4,0.1,4.7,0.6,4.9,2.4c0.3,1.9-1.7,0.4-0.5,2.7
		c1,2.1,1.9,4.2,2.8,6.3c1,2.4,1.9,4.9,3.6,6.9c1.4,1.5,3.2,5.8,1.1,7.2c1.7,0.5,3.4,1.2,4.6,2.5c1.1,1.1,2.3,0.6,3.8,0.5
		c1.5-0.1,3.1-0.3,4.5,0.2c1.8,0.6,1.5,0.6,3.2-0.6c1.3-0.9-0.4-4.3-0.6-5.8c-0.3-2,0-3.7,0.8-5.6c0.8-1.7,0.7-3.3,0.8-5.2
		c0.1-1.9,0.1-5,2.5-3.5c-0.6-2.8-2.3-3.4-4.9-3.4c-1.6,0-1.6,0-1.5-1.6c0.1-1.2,0.2-2.4,0.2-3.5c-0.1-2.4-1-4.1-3.5-4.6
		C206.5,173.9,206.3,171.9,205.1,170.9"/>
	<path id="Faizabad" sodipodi:nodetypes="cscccccccccsccscccccc" class="st1" d="M217,203.3c2.5,0.1,3.1,2,2.4,3.8
		c-0.6,1.9,7,1.3,8.7,1.5c3.1,0.3,6,0.9,8.8,2.4c1.9,1,5.6,4,7.6,2.2c0.7-0.6,1.4-1.3,1.7-2.2c0.2-0.8-0.3-1.9,0.3-2.6
		c1.2-1.4,3.9,0.7,5.8-0.5c0.8-0.6,1.6-1.2,2.4-1.9c1.3-1.1-0.5-1.8-1.5-2.6c-1.8-1.5-3.8-1.5-5.8-2.6c-4.7-2.6-4.4-9.8-11.3-5.9
		c-2.1,1.2-3.3,1.4-5.4,0.5c-1.1-0.5-2.1-0.1-2.8-1c-0.7-0.9-1.7-1.5-2.6-2c-1.7-1-3-2.7-4.6-3.2c-1.4-0.5-2.4-1.6-3.7-2.1
		c-1.5-0.6-1.6,1.8-1.7,2.9c-0.2,2.6-0.3,4.7-1.2,7.2c-1.3,3.3-0.1,6.7,0.8,9.9C216.5,205.1,213,203.1,217,203.3"/>
	<path id="Ambedkar_Nagar" class="st1" d="M263.8,207.1c-2.3-0.2-3.3-2.4-5.7-2.5c-3-0.2-4.1,2.3-6.6,3.7c-1.6,0.9-3.8-1.4-5,0.1
		c-0.6,0.7,0,1.8-0.3,2.6c-0.4,1.3-1.5,2-2.4,2.9c3.5,0.6,4.7,2.9,7.4,4.8c2.9,2.1,7.1,0.5,9.8,2.4c1.3,0.9,2.4-0.6,4.2,0.5
		c1.1,0.7,1.9,1.7,2.7,2.7c0.8,1,1.7,1.5,2.9,1.6c2.1,0.2,1.1-3.4,1-5c-0.1-1.9-0.3-2.9,1.9-2.6c1.7,0.3,3.1,1.2,4.7,1.8
		c1.5,0.7,3.9,2,4.1-0.2c0.2-1.6,0.3-3.3,0.2-4.9c-0.3-3.6-4.9-4.6-7.8-5.4C271,208.5,267.9,207.5,263.8,207.1"/>
	<path id="Unnao" class="st1" d="M178.2,223.8c1.3-1.4,3.3-1.5,4.4-3.2c1-1.7,0.4-3.6-0.4-5.2c1.5-0.1,10.2,1.2,9.5-1.2
		c-0.8-3.3-3.5-3.7-5.6-5.8c-1.9-1.9-3-4.2-4.8-6c-1.1-1.2-2.3-1.8-3.6-2.7c-1.2-0.9-1.4-3.3,0.7-2.8c-0.5-2.7-2.8-6.1-4.7-8.2
		c-0.3-0.4-0.8-0.6-1.2-0.8c-1.3-0.3-0.6-0.5-1.8-1.1c-1.2-0.7,0.2-2.3,0.7-2.9c-1.4,0-3,0.2-4,1.3c-1.1,1.3-1.2,2.6-3.4,1.6
		c-1.6-0.8-6.2-5.9-7.3-2.1c-0.4,1.5-1,1-2.5,0.9c-1.2,0-2.4-0.1-3.6,0.1c-2.1,0.3-4.1,1-2.1,3.1c1.1,1.1,2.7,1.7,3.4,3.2
		c0.9,2.1-0.2,4.5,0.8,6.6c1.6,3.2,5.9,3.6,8.2,6.2c1.4,1.6,1.8,3.7,2.9,5.5c1.1,1.6,2.8,2.4,4.1,3.8c1.4,1.5,1.2,3.4,1.8,5.2
		c0.5,1.6,1.6,2.9,2.3,4.4c0.5,1.1,1.2,3.4,2.7,3.6C177.1,227.5,177.1,224.8,178.2,223.8"/>
	<path id="Lucknow" class="st1" d="M171.6,187c0.1,0.7,2.7,2.3,3.4,3.6c1.2,2.1,3,3.7,3.4,6.2c-1.6-0.4-2,1.2-1.1,2.3
		c1,1.3,2.9,1.9,4.1,3.1c2.1,2.2,3.4,5.3,6.1,7.1c5.1,3.5,5-2.1,8.8-3.5c4.7-1.7,2.6-6.1,0.3-9c-2.5-3.2-3.5-7.6-5.2-11.2
		c-0.6-1.3-1.6-1.9-0.6-3c0.4-0.4,0.6-1,0.2-1.5c-0.7-1.1-2.3-1.6-3.5-1.9c-1.9-0.4-4.1-0.4-6.1-0.3c-2.3,0.1-2.6,1.4-4.2,2.6
		c-1.7,1.4-4,0.4-5.7,2.1C170.6,184.9,169.4,186.8,171.6,187"/>
	<path id="path2529" class="st1" d="M110.2,145.3c-1.9-1.5-4.8-1.9-7.2-2.1c-7-0.8-10.3-9.2-17.8-9.1c-0.2,2.2,0.4,2.9-1.8,4
		c-1.8,0.9-1.1,4.3-1.2,5.9c-1.1,0.3-1.3,1.4-1.3,2.4c0.5,0,2.5,0.2,2.9,0.2c0.5,0,1.5,0.6,1.9,1.3c0.4,0.7,1.6,0.2,2.2-0.1
		c0.6-0.3,1.2-0.1,1.8,0.3s1.8,0.7,2.8,0.7c1,0,2,0.3,2.5,0.4c0.5,0.1,1.3,0.6,1.8,1.5c0.5,0.9,2.1,1.7,2.9,0.7c0.8-1,1.3-1.6,2-0.8
		c0.7,0.8,2.8,1.5,3.6,1.4c0.8-0.1,3.1-0.7,3.1-0.7s0.1,0,0.2,0.1c0-0.6,0.6-0.9,1.8-1.3C109,149.9,112.1,146.9,110.2,145.3
		L110.2,145.3z"/>
	<path id="path2531" class="st1" d="M112.3,156.7c-1-1.2-2.2-2.2-3-3.5c-0.5-0.8-0.7-1.3-0.7-1.7c-0.1,0-0.2-0.1-0.2-0.1
		s-2.3,0.6-3.1,0.7c-0.8,0.1-2.9-0.6-3.6-1.4c-0.7-0.8-1.2-0.2-2,0.8c-0.8,1-2.4,0.2-2.9-0.7c-0.5-0.9-1.3-1.4-1.8-1.5
		c-0.5-0.1-1.5-0.4-2.5-0.4c-1,0-2.2-0.3-2.8-0.7c-0.6-0.4-1.2-0.6-1.8-0.3c-0.6,0.3-1.8,0.8-2.2,0.1s-1.4-1.3-1.9-1.3
		c-0.4,0-2.4-0.2-2.9-0.2c0,0.7,0.1,1.3,0.1,1.8c-0.1,1.9-0.2,3.5-1.4,5.1c-2.3,0.5-4.5,1.5-6.6,2.5c-1.4,0.7-4.2,1.6-5.1,2.9
		c-0.9,1.3-0.1,4.2,1.2,4.3c1.7,0.2,1.7,1.6,2,2.9c0.3,1.3,1.4,1.8,2.6,1.2c0.8-0.4,1.5-1,2.4-1.2c1.7-0.2,3.5,0.9,3.9-1
		c0.6-2.6,7.3-7.4,8.3-3.6c0.5,2.2,1.8,2.6,3.3,4.1c0.8,0.8,0.5,1.4,1.7,1.1c1.6-0.4,1.7,0,2.5-1.4c0.7-1.5,1.8-3,3.2-3.9
		c1.9-1.2,2.8,0.8,4.3,1.5c1.4,0.6,2.8,0.5,4.1,1.5c2.1,1.6,4.9,1.8,6.9,3.4c0.2-1.4-0.2-2.6-1.4-3.4
		C115.9,164,113.5,158.1,112.3,156.7L112.3,156.7z"/>
	<path id="path3019" sodipodi:nodetypes="ccscsscscccsccccccccccccccc" class="st0" d="M206,240c1.2,0,3.4-2.7,3.3-2.8
		c0,0-0.2-0.8-1-1.4c-0.8-0.6-3.2-0.2-3.2-0.2s0.4-1.6,1-1.6c0.6,0-0.2,0-2,0s-1-1.4-1-1.4s1.6-3,2-4c0.4-1,0.2-3,0.2-3l-0.6-1
		l2-3.6c0,0-0.4-4.4-0.4-6.4s0.2-6.6,0.2-6.6s-1.2,0.1-2.4,0.2c-1.1,0-2.6-1.9-3.8-2.4c-1.9-0.9-2.8-0.5-4.6,0.6
		c-2.8,1.5-3,6-7.1,3.9c-0.1,0.9,1.4,0.8,2.1,1.6c0.7,0.9,1,2.1,1.2,3.2c-3.2,1.3-6.4,0.3-9.7,0.4c1.2,2.4,1.4,4.9-1,6.6
		c-0.9,0.7-2.2,0.9-3,1.8c-1.1,1.1-0.8,2.9-2.5,3.4c2.6,4.3,7.7,2.3,11.6,3c4.5,0.9,6.1,5.1,11.2,4.5c-0.1,2.6,1.8,6,4.6,6.2
		C204,241,205,240.1,206,240L206,240z"/>
	<path id="path3834" sodipodi:nodetypes="ccscsscscccsccscccccccssssscccccssccc" class="st0" d="M210.5,236.4
		c-0.5,0.4-1.2,0.9-1.2,0.9s-0.2-0.9-1-1.5c-0.8-0.6-3.2-0.2-3.2-0.2s0.4-1.6,1-1.6c0.6,0-0.2,0-2,0s-1-1.4-1-1.4s1.6-3,2-4
		c0.4-1,0.2-3,0.2-3l-0.6-1l2-3.6c0,0-0.4-4.4-0.4-6.4s0.2-6.6,0.2-6.6c2.1-0.2,4.4-0.6,6.4,0.5c0.9-0.8,2.4-1.1,2.4-2.5
		c0-0.6-0.8-1.8-0.4-2.3c0.6-0.9,3-0.4,3.7,0.1c0.8,0.6,1,1.6,1,2.4c-0.9,2.4,1.1,2,3,2.3c0.9,1.4,0.8,1.2,1.8,2.5l2.4,1.3l1.3,1
		c0,0,2,0.8,2,1c-0.1,1-0.8,1.6-0.8,2.2c0,0.6-1.2,1.8,0.8,2.8s2.6,3.8,4.8,4.2s4.4-1.2,4.4,1.8c0,3-1.6,5.2-1.6,5.2l0,0l0,0
		c-2.1,0.3-3.2,0.5-3.9,0.4c-3.6,0.2-7.5,0.6-11,0.3c-2.8-0.3-4-2.5-6.7-3.2c-0.1,0-0.2,0.3-0.5,0.5c-1.7,1-3.4,2.7-3.7,4.3
		c-0.2,0.9,0.1,1.9,0.3,2.8C211.5,235.7,211,236,210.5,236.4L210.5,236.4z"/>
</g>
</svg>
